<svg width="50" height="50" viewBox="0 0 50 50" fill="none" xmlns="http://www.w3.org/2000/svg">
<path fill-rule="evenodd" clip-rule="evenodd" d="M37.6875 5.31044C36.5375 4.6646 35.3125 4.6021 34.0187 4.76252C32.7895 4.91669 31.2916 5.30419 29.4937 5.77294L25.2874 6.8646C23.4895 7.33335 21.9937 7.72085 20.85 8.18544C19.6437 8.67294 18.602 9.3271 17.927 10.4625C17.2479 11.6042 17.1812 12.825 17.3499 14.1C17.5104 15.3021 17.9124 16.7604 18.3916 18.4979L19.5229 22.5896C20.002 24.3292 20.4062 25.7854 20.8874 26.9021C21.3979 28.0896 22.0791 29.1 23.2375 29.75C24.3875 30.3938 25.6125 30.4584 26.9083 30.2959C28.1375 30.1438 29.6354 29.7542 31.4333 29.2854L35.6395 28.1938C37.4375 27.7271 38.9333 27.3375 40.077 26.8729C41.2833 26.3854 42.3249 25.7313 43 24.5959C43.6791 23.4542 43.7458 22.2334 43.577 20.9604C43.4166 19.7584 43.0145 18.2979 42.5354 16.5604L41.4041 12.4688C40.925 10.7313 40.5208 9.27294 40.0395 8.15627C39.5291 6.96877 38.8437 5.95835 37.6875 5.31044ZM30.177 8.82294C32.1041 8.32294 33.402 7.9896 34.4062 7.8646C35.3666 7.74377 35.827 7.85002 36.1625 8.03752C36.4895 8.22085 36.8041 8.5396 37.1687 9.39169C37.5541 10.2875 37.9041 11.5354 38.4208 13.4063L39.4916 17.2875C40.0104 19.1584 40.352 20.4084 40.4791 21.3709C40.6 22.2854 40.4916 22.7 40.3125 22.9979C40.1312 23.3042 39.802 23.6146 38.9062 23.9771C37.9729 24.3542 36.677 24.6959 34.75 25.1959L30.75 26.2354C28.8229 26.7354 27.5249 27.0688 26.5208 27.1938C25.5583 27.3167 25.1 27.2104 24.7645 27.0229C24.4375 26.8396 24.1229 26.5188 23.7583 25.6688C23.3729 24.7729 23.0229 23.5229 22.5062 21.6521L21.4354 17.7729C20.9166 15.8979 20.5749 14.65 20.4479 13.6896C20.327 12.7729 20.4354 12.3604 20.6145 12.0604C20.7958 11.7542 21.1249 11.4438 22.0208 11.0813C22.9541 10.7042 24.2499 10.3646 26.177 9.86252L30.177 8.82294Z" fill="#A4043D"/>
<path fill-rule="evenodd" clip-rule="evenodd" d="M6.66661 9.84377C6.27191 9.74701 5.85505 9.80783 5.50445 10.0133C5.15385 10.2188 4.89711 10.5528 4.78869 10.9445C4.68027 11.3361 4.72871 11.7546 4.92373 12.1112C5.11875 12.4677 5.44501 12.7342 5.83328 12.8542L9.38119 13.8396C10.2687 14.0854 10.9291 14.7563 11.1541 15.5709L15.2208 30.2854C15.0634 30.3166 14.9071 30.3527 14.752 30.3938C10.6333 31.4625 8.11661 35.6063 9.24578 39.7C10.3708 43.7729 14.6499 46.1209 18.752 45.0542C22.3437 44.1229 24.7166 40.8542 24.5166 37.3209L42.0583 32.7625C42.2569 32.711 42.4434 32.6208 42.6072 32.4971C42.771 32.3735 42.9088 32.2188 43.0128 32.0418C43.1167 31.8649 43.1849 31.6693 43.2132 31.466C43.2416 31.2628 43.2296 31.0559 43.1781 30.8573C43.1265 30.6587 43.0363 30.4722 42.9127 30.3084C42.789 30.1446 42.6343 30.0068 42.4574 29.9028C42.2805 29.7989 42.0848 29.7307 41.8816 29.7024C41.6783 29.674 41.4715 29.686 41.2729 29.7375L23.6937 34.3063C23.1678 33.3013 22.4276 32.424 21.5255 31.7365C20.6234 31.0489 19.5813 30.5678 18.4729 30.3271L14.1666 14.7375C13.9023 13.7997 13.3995 12.9464 12.7072 12.2607C12.015 11.575 11.1569 11.0804 10.2166 10.825L6.66869 9.84169L6.66661 9.84377ZM15.5395 33.4167C18.0645 32.7625 20.5979 34.2271 21.2479 36.5813C21.8937 38.9146 20.477 41.3792 17.9687 42.0313C15.4437 42.6875 12.9104 41.2209 12.2604 38.8667C11.6145 36.5334 13.0312 34.0688 15.5395 33.4167Z" fill="#A4043D"/>
</svg>
