<svg width="50" height="50" viewBox="0 0 50 50" fill="none" xmlns="http://www.w3.org/2000/svg">
<g clip-path="url(#clip0_48_1481)">
<path d="M4.68751 25C4.68751 19.6128 6.82757 14.4462 10.6369 10.6369C14.4462 6.82757 19.6128 4.68751 25 4.68751C30.3872 4.68751 35.5538 6.82757 39.3631 10.6369C43.1725 14.4462 45.3125 19.6128 45.3125 25C45.3125 25.6216 45.5594 26.2178 45.999 26.6573C46.4385 27.0968 47.0347 27.3438 47.6563 27.3438C48.2779 27.3438 48.874 27.0968 49.3135 26.6573C49.7531 26.2178 50 25.6216 50 25C50 20.0555 48.5338 15.222 45.7868 11.1108C43.0397 6.99953 39.1353 3.79521 34.5671 1.90302C29.9989 0.010832 24.9723 -0.484251 20.1228 0.480379C15.2732 1.44501 10.8187 3.82603 7.32234 7.32234C3.82603 10.8187 1.44501 15.2732 0.480379 20.1228C-0.484251 24.9723 0.010832 29.9989 1.90302 34.5671C3.79521 39.1353 6.99953 43.0397 11.1108 45.7868C15.222 48.5338 20.0555 50 25 50C25.6216 50 26.2178 49.7531 26.6573 49.3135C27.0968 48.874 27.3438 48.2779 27.3438 47.6563C27.3438 47.0347 27.0968 46.4385 26.6573 45.999C26.2178 45.5594 25.6216 45.3125 25 45.3125C19.6128 45.3125 14.4462 43.1725 10.6369 39.3631C6.82757 35.5538 4.68751 30.3872 4.68751 25Z" fill="#9F2600"/>
<path d="M27.1156 38.8344L36.1656 47.8844C36.2749 47.9939 36.4142 48.0686 36.566 48.0988C36.7177 48.1291 36.875 48.1136 37.0179 48.0544C37.1608 47.9951 37.283 47.8948 37.3688 47.766C37.4546 47.6373 37.5003 47.486 37.5 47.3313V40.625H47.6563C48.2779 40.625 48.874 40.3781 49.3135 39.9385C49.7531 39.499 50 38.9029 50 38.2813C50 37.6597 49.7531 37.0635 49.3135 36.624C48.874 36.1844 48.2779 35.9375 47.6563 35.9375H37.5V29.2313C37.5003 29.0765 37.4546 28.9252 37.3688 28.7965C37.283 28.6678 37.1608 28.5674 37.0179 28.5082C36.875 28.4489 36.7177 28.4334 36.566 28.4637C36.4142 28.494 36.2749 28.5686 36.1656 28.6781L27.1156 37.7281C27.0429 37.8007 26.9852 37.8869 26.9458 37.9818C26.9064 38.0767 26.8861 38.1785 26.8861 38.2813C26.8861 38.384 26.9064 38.4858 26.9458 38.5807C26.9852 38.6756 27.0429 38.7618 27.1156 38.8344ZM35.25 21.1875C35.4675 20.97 35.64 20.7118 35.7577 20.4276C35.8755 20.1434 35.936 19.8389 35.936 19.5313C35.936 19.2237 35.8755 18.9191 35.7577 18.6349C35.64 18.3507 35.4675 18.0925 35.25 17.875C35.0325 17.6575 34.7743 17.485 34.4901 17.3673C34.2059 17.2496 33.9014 17.189 33.5938 17.189C33.2862 17.189 32.9816 17.2496 32.6974 17.3673C32.4132 17.485 32.155 17.6575 31.9375 17.875L22.6563 27.1531L18.0625 22.5625C17.845 22.345 17.5868 22.1725 17.3026 22.0548C17.0184 21.9371 16.7139 21.8765 16.4063 21.8765C16.0987 21.8765 15.7941 21.9371 15.5099 22.0548C15.2257 22.1725 14.9675 22.345 14.75 22.5625C14.5325 22.78 14.36 23.0382 14.2423 23.3224C14.1246 23.6066 14.064 23.9112 14.064 24.2188C14.064 24.5264 14.1246 24.8309 14.2423 25.1151C14.36 25.3993 14.5325 25.6575 14.75 25.875L21 32.125C21.2174 32.3427 21.4756 32.5154 21.7598 32.6333C22.044 32.7511 22.3486 32.8117 22.6563 32.8117C22.9639 32.8117 23.2685 32.7511 23.5527 32.6333C23.8369 32.5154 24.0951 32.3427 24.3125 32.125L35.25 21.1875Z" fill="#9F2600"/>
</g>
<defs>
<clipPath id="clip0_48_1481">
<rect width="50" height="50" fill="white"/>
</clipPath>
</defs>
</svg>
