<svg width="44" height="44" viewBox="0 0 44 44" fill="none" xmlns="http://www.w3.org/2000/svg">
<path d="M6 10C7.06087 10 8.07828 9.57857 8.82843 8.82843C9.57857 8.07828 10 7.06087 10 6C10 4.93913 9.57857 3.92172 8.82843 3.17157C8.07828 2.42143 7.06087 2 6 2C4.93913 2 3.92172 2.42143 3.17157 3.17157C2.42143 3.92172 2 4.93913 2 6C2 7.06087 2.42143 8.07828 3.17157 8.82843C3.92172 9.57857 4.93913 10 6 10ZM8 40C9.5913 40 11.1174 39.3679 12.2426 38.2426C13.3679 37.1174 14 35.5913 14 34C14 32.4087 13.3679 30.8826 12.2426 29.7574C11.1174 28.6321 9.5913 28 8 28C6.4087 28 4.88258 28.6321 3.75736 29.7574C2.63214 30.8826 2 32.4087 2 34C2 35.5913 2.63214 37.1174 3.75736 38.2426C4.88258 39.3679 6.4087 40 8 40ZM36 42C37.5913 42 39.1174 41.3679 40.2426 40.2426C41.3679 39.1174 42 37.5913 42 36C42 34.4087 41.3679 32.8826 40.2426 31.7574C39.1174 30.6321 37.5913 30 36 30C34.4087 30 32.8826 30.6321 31.7574 31.7574C30.6321 32.8826 30 34.4087 30 36C30 37.5913 30.6321 39.1174 31.7574 40.2426C32.8826 41.3679 34.4087 42 36 42ZM20 26C22.1217 26 24.1566 25.1571 25.6569 23.6569C27.1571 22.1566 28 20.1217 28 18C28 15.8783 27.1571 13.8434 25.6569 12.3431C24.1566 10.8429 22.1217 10 20 10C17.8783 10 15.8434 10.8429 14.3431 12.3431C12.8429 13.8434 12 15.8783 12 18C12 20.1217 12.8429 22.1566 14.3431 23.6569C15.8434 25.1571 17.8783 26 20 26ZM32 10C33.0609 10 34.0783 9.57857 34.8284 8.82843C35.5786 8.07828 36 7.06087 36 6C36 4.93913 35.5786 3.92172 34.8284 3.17157C34.0783 2.42143 33.0609 2 32 2C30.9391 2 29.9217 2.42143 29.1716 3.17157C28.4214 3.92172 28 4.93913 28 6C28 7.06087 28.4214 8.07828 29.1716 8.82843C29.9217 9.57857 30.9391 10 32 10Z" stroke="#02761F" stroke-width="4" stroke-linecap="round" stroke-linejoin="round"/>
<path d="M9 9L13 13M28 10L26 12M32 31.5L26 24M12 29L16 25" stroke="#02761F" stroke-width="4" stroke-linecap="round" stroke-linejoin="round"/>
</svg>
