<svg width="128" height="128" viewBox="0 0 128 128" fill="none" xmlns="http://www.w3.org/2000/svg">
<path d="M23.45 62.3004C24.17 61.5804 22.18 53.0104 31.05 46.3904C39.92 39.7704 45.97 43.7204 46.82 43.4304C47.66 43.1504 51.61 25.8304 68.22 21.3304C84.83 16.8304 102.15 25.2704 106.23 39.3504C109.96 52.2204 107.07 60.8904 107.5 61.4504C107.92 62.0104 115.95 61.7304 120.59 69.1904C125.23 76.6504 123.55 81.3004 123.55 81.3004L93.99 90.4504H46.69C46.69 90.4504 5.01995 79.4704 4.59995 77.5004C4.17995 75.5304 5.12995 69.1304 11.92 65.2504C17.82 61.8804 22.18 63.5704 23.45 62.3004Z" fill="#E4EAEE"/>
<path d="M35.16 92.8401C35.16 92.8401 19.38 96.1401 8.70996 87.8801C2.28996 82.9001 4.62996 74.8301 4.62996 74.8301C4.62996 74.8301 9.22996 79.4801 18.52 80.7401C27.81 82.0101 38.23 81.5801 38.23 81.5801C38.23 81.5801 40.83 86.0201 50.62 88.0601C62.89 90.6101 69.36 84.3301 69.36 84.3301C69.36 84.3301 72.72 88.3501 84.55 88.6301C96.38 88.9101 103.01 80.6501 104.12 80.4601C104.68 80.3701 107.94 83.3301 114.4 82.2901C120.55 81.3001 123.79 78.6301 123.79 78.6301C123.79 78.6301 124.68 85.2501 118.49 89.3301C113.66 92.5101 105.26 92.8501 105.26 92.8501C105.26 92.8501 103.98 97.7601 98.21 101.33C92.85 104.66 83.61 105.77 76.77 103.73C68.18 101.17 66.05 97.2601 66.05 97.2601C66.05 97.2601 59.65 101.01 49.65 99.7401C40.2 98.5601 35.16 92.8401 35.16 92.8401Z" fill="#BACDD2"/>
</svg>
