<svg width="130" height="130" viewBox="0 0 130 130" fill="none" xmlns="http://www.w3.org/2000/svg">
<g clip-path="url(#clip0_621_1219)">
<path d="M97.5 28.8891C95.035 28.89 92.5834 29.2526 90.2236 29.9652C90.2417 29.6041 90.2778 29.2538 90.2778 28.8891C90.2744 23.6434 88.3673 18.5772 84.9109 14.6314C81.4544 10.6855 76.6834 8.12811 71.4839 7.4341C66.2844 6.74009 61.0096 7.95664 56.6393 10.8578C52.2689 13.759 49.0999 18.1477 47.7208 23.2088C45.1767 22.1915 42.4621 21.6682 39.7222 21.6668C33.9759 21.6668 28.4649 23.9496 24.4016 28.0129C20.3383 32.0761 18.0555 37.5871 18.0555 43.3335C18.0555 49.0799 20.3383 54.5909 24.4016 58.6541C28.4649 62.7174 33.9759 65.0002 39.7222 65.0002C44.4765 64.9971 49.0978 63.4298 52.8731 60.5401C56.6484 57.6504 59.368 53.5987 60.6125 49.0102C63.1564 50.0286 65.8709 50.5531 68.6111 50.5557C69.9653 50.5557 71.2833 50.4149 72.5689 50.1802C72.3594 51.4802 72.2222 52.8054 72.2222 54.1668C72.2222 68.1238 83.543 79.4446 97.5 79.4446C111.457 79.4446 122.778 68.1238 122.778 54.1668C122.778 47.4627 120.115 41.0332 115.374 36.2927C110.634 31.5522 104.204 28.8891 97.5 28.8891Z" fill="#CCD6DD"/>
<path d="M111.944 79.4441C110.258 79.4441 108.658 79.7511 107.109 80.1808C107.889 78.2813 108.333 76.2086 108.333 74.0275C108.333 69.7177 106.621 65.5844 103.574 62.537C100.526 59.4895 96.3931 57.7775 92.0834 57.7775C88.5556 57.7877 85.1288 58.9562 82.3298 61.1033C81.0612 56.0298 78.1339 51.5257 74.0128 48.3061C69.8917 45.0866 64.813 43.3362 59.5834 43.333C54.717 43.3356 49.9719 44.8513 46.0052 47.6703C42.0385 50.4892 39.0465 54.4718 37.4436 59.0666C33.4715 57.8385 29.2811 57.4822 25.1586 58.0221C21.0362 58.562 17.0788 59.9853 13.5569 62.1949C10.035 64.4045 7.03158 67.3483 4.75172 70.8251C2.47187 74.3019 0.969348 78.2299 0.346805 82.3407C-0.275738 86.4515 -0.00363583 90.6482 1.14452 94.6442C2.29268 98.6402 4.28985 102.341 6.99958 105.495C9.70931 108.648 13.0678 111.179 16.8455 112.915C20.6232 114.652 24.7313 115.552 28.8889 115.555H111.944C121.918 115.555 130 107.474 130 97.4997C130 87.5258 121.918 79.4441 111.944 79.4441Z" fill="#E1E8ED"/>
</g>
<defs>
<clipPath id="clip0_621_1219">
<rect width="130" height="130" fill="white"/>
</clipPath>
</defs>
</svg>
